<svg xmlns="http://www.w3.org/2000/svg" width="34.934" height="27.721" fill="#fff" xmlns:v="https://vecta.io/nano"><path d="M6.138 3.513h.213a6.31 6.31 0 0 1 4.186 1.667v-1.6c.006-.048.03-.07.07-.07h1.88c.047.005.07.03.07.07V16c.003.02-.004.04-.018.053s-.034.02-.053.018h-1.88c-.02.003-.04-.004-.053-.018s-.02-.034-.018-.053v-1.6C9.44 15.437 8 16.03 6.493 16.07H5.96c-1.707-.074-3.31-.844-4.435-2.13A6.42 6.42 0 0 1 0 9.896v-.178C.003 7.712.983 5.832 2.626 4.68c1.02-.746 2.248-1.154 3.512-1.168zM2.023 9.686V9.9a4.15 4.15 0 0 0 2.164 3.618 3.96 3.96 0 0 0 1.88.533h.355c2.235-.077 4.023-1.88 4.08-4.116V9.65c-.033-1.628-1-3.09-2.484-3.76a4.81 4.81 0 0 0-1.7-.355H6.21a4.24 4.24 0 0 0-4.186 4.151z"/><path d="M21.78 0h1.88c.047.006.07.03.07.07V16c.003.02-.004.04-.018.053s-.034.02-.053.018h-1.88c-.02.003-.04-.004-.053-.018s-.02-.034-.018-.053v-1.6a6.11 6.11 0 0 1-4.045 1.668h-.532a6.26 6.26 0 0 1-4.435-2.129 6.42 6.42 0 0 1-1.525-4.044v-.178c.003-2.006.982-3.885 2.625-5.037 1.02-.747 2.248-1.156 3.512-1.17h.213c1.553.022 3.044.615 4.187 1.667V.07c.005-.047.03-.07.07-.07zm-8.586 9.686V9.9a4.15 4.15 0 0 0 2.164 3.618 3.96 3.96 0 0 0 1.88.533h.355c2.235-.076 4.024-1.88 4.08-4.116V9.65c-.033-1.628-1-3.09-2.483-3.76a4.82 4.82 0 0 0-1.7-.355h-.107a4.24 4.24 0 0 0-4.186 4.151z"/><path d="M28.467 3.7h.32a6.05 6.05 0 0 1 4.79 2.448c.78 1.007 1.216 2.238 1.24 3.512v.5q0 .64-.106.64H24.425v.035a4.36 4.36 0 0 0 4.116 3.371h.177a4.34 4.34 0 0 0 3.335-1.632h2.13a5.83 5.83 0 0 1-3.193 3.051 6.18 6.18 0 0 1-2.306.461h-.07a6.15 6.15 0 0 1-5.322-3.051c-.547-.963-.84-2.05-.85-3.158a6.17 6.17 0 0 1 6.028-6.176zm-4.045 5.25q7.052.034 8.444.035V8.94a4.48 4.48 0 0 0-1.809-2.661c-.677-.44-1.463-.687-2.27-.7h-.355a4.23 4.23 0 0 0-3.4 1.916 4.7 4.7 0 0 0-.606 1.455zm-5.402 8.975a6.19 6.19 0 0 0-5.112-2.763h-.2a6.19 6.19 0 0 0-5.112 2.763 6.1 6.1 0 0 0-1.064 3.335v.357a6.23 6.23 0 0 0 2.946 5.177 8.22 8.22 0 0 0 .945.457c.662.302 1.38.46 2.107.464h.568c.727-.004 1.445-.162 2.106-.464a8.15 8.15 0 0 0 .946-.457 6.23 6.23 0 0 0 2.945-5.177v-.356a6.1 6.1 0 0 0-1.065-3.336zm-5.4 7.772c-.66-.018-1.308-.2-1.88-.532-.304-.2-.6-.4-.85-.655l-.016.03a5.86 5.86 0 0 1-.558-.62 4.08 4.08 0 0 1-.778-2.342v-.28c-.01-.754.205-1.493.62-2.123l.038.047c.188-.302.408-.582.655-.837l.295-.255.08-.063a4.21 4.21 0 0 1 1.329-.706c.245-.072.494-.124.747-.156h.03c.08-.01.16-.01.237-.014l.188-.01h.076l.188.01.236.014h.03c.253.032.502.085.747.156a4.22 4.22 0 0 1 1.329.706l.08.063.3.255c.247.255.467.536.655.837l.038-.047a3.77 3.77 0 0 1 .62 2.123v.28a4.08 4.08 0 0 1-.78 2.342 5.71 5.71 0 0 1-.557.619l-.016-.03c-.26.245-.546.465-.85.655a3.99 3.99 0 0 1-1.88.532z"/><path d="M26.067 25.492v2.2l-.248.01h-.142q-5.845.337-7.06-4.683l-.036-1.42q.036-1.046.036-2.306v-4.08c-.003-.02.004-.04.018-.053s.034-.02.053-.018h1.88c.02-.003.04.004.053.018s.02.034.018.053v5.393l.142 2.057q.585 2.928 4.08 3.016a4.13 4.13 0 0 0 1.206-.187z"/><path d="M28.512 15.16h.213c1.553.022 3.043.616 4.186 1.667v-1.6c.006-.048.03-.07.07-.07h1.885c.047.006.07.03.07.07v12.417c.003.02-.004.04-.018.053s-.034.02-.053.018h-1.88c-.02.003-.04-.004-.053-.018s-.02-.034-.018-.053v-1.6a6.11 6.11 0 0 1-4.044 1.667h-.532c-1.707-.074-3.3-.843-4.435-2.13a6.42 6.42 0 0 1-1.526-4.044v-.177c.003-2.007.983-3.886 2.626-5.038 1.02-.743 2.246-1.15 3.508-1.163zm-4.115 6.173v.213c.01 1.5.84 2.895 2.164 3.62a3.97 3.97 0 0 0 1.88.532h.355c2.235-.077 4.023-1.88 4.08-4.116V21.3c-.032-1.628-1-3.092-2.484-3.76a4.83 4.83 0 0 0-1.7-.355h-.106a4.24 4.24 0 0 0-4.186 4.151z"/></svg>