<svg xmlns="http://www.w3.org/2000/svg" width="20" height="12.51" xmlns:v="https://vecta.io/nano"><path d="M0 0l5.584.023a6.8 6.8 0 0 1 1.8.256 2.83 2.83 0 0 1 2.175 2.38c.23 1.186-.304 2.4-1.336 3.016-.037.032-.07.068-.1.107 1.134.508 1.864 1.636 1.864 2.88a3.57 3.57 0 0 1-3.091 3.666 8.97 8.97 0 0 1-1.694.165l-5.2.013zm2.52 5h2.378a6.1 6.1 0 0 0 1.075-.066 1.3 1.3 0 0 0 1.175-1.209c-.054-.627-.57-1.112-1.2-1.127-.95-.1-1.9-.07-2.864-.1-.188-.005-.376 0-.566 0zm0 5h1.957a9.87 9.87 0 0 0 1.448-.075c.764-.13 1.22-.6 1.217-1.156A1.27 1.27 0 0 0 5.903 7.59c-1.017-.1-2.046-.065-3.07-.085a2.76 2.76 0 0 0-.314.029zm17.473-1.686h-6.656a2.22 2.22 0 0 0 1.062 2.014c.795.443 1.774.395 2.522-.124a1.13 1.13 0 0 1 .591-.2l2.353-.01a9.47 9.47 0 0 1-.834 1.165 4.73 4.73 0 0 1-4.139 1.293c-1.116-.037-2.17-.526-2.918-1.354s-1.13-1.925-1.053-3.04a7.44 7.44 0 0 1 .209-2.059c.544-2.186 2.706-3.563 4.917-3.132a4.15 4.15 0 0 1 3.943 4.269c.022.37.003.744.003 1.176zm-2.507-1.676a1.84 1.84 0 0 0-.65-1.403c-.412-.35-.956-.502-1.5-.415a1.81 1.81 0 0 0-1.922 1.818zM12.523 1.64V.023h5.783V1.64z"/></svg>