<svg xmlns="http://www.w3.org/2000/svg" width="22" height="22" xmlns:v="https://vecta.io/nano"><path d="M10.995 22C4.92 21.997-.003 17.07 0 10.995S4.93-.003 11.005 0 22.003 4.93 22 11.005A11.01 11.01 0 0 1 10.995 22zm2.75-2.192c4.635-1.445 7.36-6.232 6.234-10.955S14.262 1.086 9.474 1.887 1.335 7.06 1.808 11.892a8.99 8.99 0 0 0 2.715 5.685 8.9 8.9 0 0 0 3.841 2.272v-.247c0-.56-.01-1.118.013-1.677.004-.555.23-1.084.63-1.47.06-.058.126-.113.2-.188-.077-.014-.117-.024-.158-.028a7.32 7.32 0 0 1-2.209-.559c-.978-.405-1.748-1.193-2.13-2.18-.26-.705-.398-1.45-.41-2.2a4.08 4.08 0 0 1 .984-2.99c.07-.068.088-.17.047-.26A3.68 3.68 0 0 1 5.462 5.5c.033-.064.095-.108.167-.118a3.15 3.15 0 0 1 .643.06c.713.198 1.386.52 1.99.95.093.065.21.084.32.05a9.83 9.83 0 0 1 4.937 0 .4.4 0 0 0 .35-.064 6.26 6.26 0 0 1 1.977-.934c.21-.042.425-.06.64-.058a.19.19 0 0 1 .143.1A3.69 3.69 0 0 1 16.77 8c-.052.12-.026.26.067.352.602.692.938 1.574.948 2.49.028.777-.068 1.553-.283 2.3a3.9 3.9 0 0 1-1.418 2.057c-.728.506-1.564.834-2.44.96-.243.046-.5.074-.72.108a6.87 6.87 0 0 1 .519.647c.223.402.327.858.3 1.317l.003 1.576z"/></svg>