<svg xmlns="http://www.w3.org/2000/svg" width="25.019" height="25.011" fill="#797575" xmlns:v="https://vecta.io/nano"><path d="M6.43 25.007a17.47 17.47 0 0 1-2.792-.893 6.12 6.12 0 0 1-3.553-5.465c-.12-4.184-.1-8.376.006-12.56C.352 2.94 2.83.428 5.974.124c.68-.052 1.362-.092 2.044-.1l9.8-.017a6.88 6.88 0 0 1 6.341 3.628 6.94 6.94 0 0 1 .835 3.46l-.057 11.434c-.086 3.327-2.65 6.062-5.965 6.36a2.68 2.68 0 0 0-.4.115zm6.187-22.635v-.065c-1.74 0-3.483-.022-5.224 0-3.2.05-5.024 1.754-5.072 4.88-.056 3.672-.03 7.345.025 11.02a4.22 4.22 0 0 0 3.545 4.3 7.94 7.94 0 0 0 1.676.193l9.954.006c3.36-.032 5.213-1.828 5.27-5.2.06-3.483.048-6.966.01-10.45a4.44 4.44 0 0 0-4.259-4.66c-1.963-.154-3.95-.032-5.923-.032zm-.097 3.663a6.45 6.45 0 0 1 4.558 1.902 6.44 6.44 0 0 1 1.873 4.57c-.035 3.537-2.907 6.4-6.444 6.4-1.714.006-3.36-.67-4.573-1.88S6.038 14.174 6.04 12.46a6.43 6.43 0 0 1 6.481-6.424zm0 2.3a4.1 4.1 0 0 0-4.139 4.163 4.12 4.12 0 0 0 1.224 2.908 4.11 4.11 0 0 0 2.924 1.185 4.12 4.12 0 0 0 4.1-4.068 4.12 4.12 0 0 0-4.122-4.192zm8.163-2.468c-.02.787-.654 1.42-1.44 1.445a1.5 1.5 0 0 1-1.486-1.473 1.48 1.48 0 0 1 1.441-1.443c.815-.001 1.48.656 1.486 1.47z"/></svg>