<svg xmlns="http://www.w3.org/2000/svg" width="467" height="198" viewBox="0 0 467 198"><path d="M466,197H0V0H466V197ZM274.7,77.95a34.549,34.549,0,0,0-13.2,2.437A30.015,30.015,0,0,0,251,87.7a32.323,32.323,0,0,0-6.863,11.213,41.6,41.6,0,0,0-2.288,14.137,41.042,41.042,0,0,0,2.288,14.025A32.389,32.389,0,0,0,251,138.25a30.015,30.015,0,0,0,10.5,7.312,36.962,36.962,0,0,0,26.4,0,30.015,30.015,0,0,0,10.5-7.312,32.393,32.393,0,0,0,6.862-11.175,41.045,41.045,0,0,0,2.287-14.025,41.6,41.6,0,0,0-2.287-14.137A32.326,32.326,0,0,0,298.4,87.7a30.015,30.015,0,0,0-10.5-7.312A34.553,34.553,0,0,0,274.7,77.95Zm-65.55,0a32.3,32.3,0,0,0-12.844,2.494,29.986,29.986,0,0,0-10.331,7.481,33.671,33.671,0,0,0-6.806,11.269A40.721,40.721,0,0,0,176.9,113.05a42.069,42.069,0,0,0,2.25,14.119,32.056,32.056,0,0,0,6.75,11.156,29.375,29.375,0,0,0,10.387,7.256A34.5,34.5,0,0,0,209.45,148a38.32,38.32,0,0,0,11.269-1.556,26.594,26.594,0,0,0,8.906-4.668,25.125,25.125,0,0,0,6.244-7.406,30.156,30.156,0,0,0,3.281-9.769H221.9a10.6,10.6,0,0,1-4.238,6.3,14.507,14.507,0,0,1-8.213,2.1,14.678,14.678,0,0,1-5.7-1.069,12.74,12.74,0,0,1-4.5-3.206,15.394,15.394,0,0,1-3.038-5.082,23.411,23.411,0,0,1-1.312-6.694h44.7v-5.7a43.423,43.423,0,0,0-2.006-13.631,30.206,30.206,0,0,0-6.018-10.594,25.5,25.5,0,0,0-9.619-6.806A34.072,34.072,0,0,0,209.15,77.95Zm-73.65,0a30.506,30.506,0,0,0-12.619,2.512A26.414,26.414,0,0,0,113.225,88a35.024,35.024,0,0,0-6.132,11.287,47.293,47.293,0,0,0,0,27.506,34.63,34.63,0,0,0,6.132,11.231,26.387,26.387,0,0,0,9.656,7.481A30.7,30.7,0,0,0,135.5,148a23.531,23.531,0,0,0,9.75-2.1,19.659,19.659,0,0,0,7.05-4.95v5.55H171.05V49H152.3V85a19.672,19.672,0,0,0-7.05-4.95A23.545,23.545,0,0,0,135.5,77.95ZM364.1,104.5a33.052,33.052,0,0,0-10.182,1.5,25.919,25.919,0,0,0-8.344,4.5,20,20,0,0,0-5.569,6.862,19.657,19.657,0,0,0-1.856,8.587,21.886,21.886,0,0,0,1.781,9,18.9,18.9,0,0,0,5.344,6.9,24.759,24.759,0,0,0,8.006,4.387,31.244,31.244,0,0,0,9.769,1.463,32.186,32.186,0,0,0,9.9-1.5c3.085-1,5.255-2.105,6.45-3.3v3.6h17.85V103.75a29.657,29.657,0,0,0-1.856-10.819,21.742,21.742,0,0,0-5.569-8.157,24.175,24.175,0,0,0-8.906-5.118A38.16,38.16,0,0,0,369.05,77.95a34.009,34.009,0,0,0-10.369,1.519,27.364,27.364,0,0,0-8.606,4.556,25.482,25.482,0,0,0-6.169,6.881A23.773,23.773,0,0,0,340.85,99.4h17.7a9.357,9.357,0,0,1,3.675-4.725A11.44,11.44,0,0,1,368.45,93.1c3.583,0,6.333.984,8.175,2.925a10.4,10.4,0,0,1,2.776,7.425v4.95a21.229,21.229,0,0,0-6.6-2.7A33.908,33.908,0,0,0,364.1,104.5Zm-297.15,0A33.049,33.049,0,0,0,56.769,106a25.919,25.919,0,0,0-8.344,4.5,20,20,0,0,0-5.569,6.862A19.657,19.657,0,0,0,41,125.95a21.888,21.888,0,0,0,1.781,9,18.9,18.9,0,0,0,5.343,6.9,24.76,24.76,0,0,0,8.006,4.387A31.244,31.244,0,0,0,65.9,147.7a32.178,32.178,0,0,0,9.9-1.5c3.086-1,5.256-2.105,6.45-3.3v3.6H100.1V103.75a29.657,29.657,0,0,0-1.856-10.819,21.742,21.742,0,0,0-5.569-8.157,24.174,24.174,0,0,0-8.906-5.118A38.16,38.16,0,0,0,71.9,77.95a34.006,34.006,0,0,0-10.369,1.519,27.367,27.367,0,0,0-8.606,4.556,25.473,25.473,0,0,0-6.169,6.881A23.775,23.775,0,0,0,43.7,99.4H61.4a9.357,9.357,0,0,1,3.675-4.725A11.44,11.44,0,0,1,71.3,93.1c3.583,0,6.333.984,8.176,2.925a10.4,10.4,0,0,1,2.775,7.425v4.95a21.231,21.231,0,0,0-6.6-2.7A33.921,33.921,0,0,0,66.95,104.5Zm347.1,19.2a11.36,11.36,0,0,0-8.325,3.375,11.544,11.544,0,0,0-3.375,8.475,11.941,11.941,0,0,0,3.3,8.55,11.482,11.482,0,0,0,8.4,3.45,11.233,11.233,0,0,0,8.325-3.45,11.8,11.8,0,0,0,3.375-8.55,11.544,11.544,0,0,0-3.375-8.475A11.36,11.36,0,0,0,414.05,123.7ZM313.4,49v97.5H332V49Zm53.851,85.05a15.939,15.939,0,0,1-8.4-2.1,7.167,7.167,0,0,1,.076-12.3,16.041,16.041,0,0,1,8.325-2.1,17.776,17.776,0,0,1,7.574,1.575A8.793,8.793,0,0,1,379.4,123.4v4.8a8.788,8.788,0,0,1-4.576,4.275A17.776,17.776,0,0,1,367.25,134.05Zm-297.15,0a15.933,15.933,0,0,1-8.4-2.1,7.166,7.166,0,0,1,.075-12.3,16.041,16.041,0,0,1,8.325-2.1,17.779,17.779,0,0,1,7.575,1.575A8.792,8.792,0,0,1,82.25,123.4v4.8a8.787,8.787,0,0,1-4.575,4.275A17.779,17.779,0,0,1,70.1,134.05Zm204.6-1.8a13.26,13.26,0,0,1-6.019-1.331,12.612,12.612,0,0,1-4.556-3.993,19.2,19.2,0,0,1-2.869-6.132,29.259,29.259,0,0,1-.956-7.744,30,30,0,0,1,.956-7.856,19.151,19.151,0,0,1,2.869-6.169,12.612,12.612,0,0,1,4.556-3.994,14.271,14.271,0,0,1,12.037,0,12.607,12.607,0,0,1,4.556,3.994,19.142,19.142,0,0,1,2.869,6.169,30,30,0,0,1,.956,7.856,29.265,29.265,0,0,1-.956,7.744,19.2,19.2,0,0,1-2.869,6.132,12.607,12.607,0,0,1-4.556,3.993A13.262,13.262,0,0,1,274.7,132.25Zm-135-.45a16.028,16.028,0,0,1-6.6-1.312,14.109,14.109,0,0,1-5.1-3.937,18,18,0,0,1-3.262-6,26.472,26.472,0,0,1,0-15.019A18.387,18.387,0,0,1,128,99.475a14.136,14.136,0,0,1,5.1-3.994,15.833,15.833,0,0,1,6.6-1.331,13.862,13.862,0,0,1,7.5,2.175,13.491,13.491,0,0,1,5.1,5.625V124a13.9,13.9,0,0,1-12.6,7.8Zm81.6-26.1H195.35c.846-4.181,2.448-7.36,4.762-9.45A13.242,13.242,0,0,1,209.3,93.1a11.115,11.115,0,0,1,8.7,3.525,13.746,13.746,0,0,1,3.3,9.074Z" transform="translate(0.5 0.5)" stroke="rgba(0,0,0,0)" stroke-miterlimit="10" stroke-width="1"/></svg>