<svg xmlns="http://www.w3.org/2000/svg" width="302" height="85.573" viewBox="0 0 302 85.573"><g transform="translate(1 1.014)"><path d="M31.886,6.606h1.083a32.886,32.886,0,0,1,21.748,8.638V6.911a.335.335,0,0,1,.361-.361h9.777c.25,0,.361,0,.361.361V71.433c0,.25,0,.389-.361.389H55.078c-.25,0-.361-.139-.361-.389V63.1a31.719,31.719,0,0,1-21,8.666H30.942q-12,0-23.026-11.11A33.33,33.33,0,0,1,0,39.769v-.944A32,32,0,0,1,13.638,12.688,31.525,31.525,0,0,1,31.886,6.606ZM10.5,38.658v1.111c0,7.722,3.75,13.888,11.249,18.776A20.332,20.332,0,0,0,31.5,61.323H33.33A21.137,21.137,0,0,0,50.468,52.24a21.081,21.081,0,0,0,4.055-12.166V38.353c0-8.166-4.277-14.665-12.888-19.443A25,25,0,0,0,32.8,17.077h-.556A22,22,0,0,0,10.5,38.63Z" transform="translate(0 11.654)" stroke="#09f755" stroke-width="2"/><path d="M76.039.011h9.749a.335.335,0,0,1,.361.361V83.087c0,.25,0,.389-.361.389H76.039a.361.361,0,0,1-.389-.389V74.754A31.719,31.719,0,0,1,54.6,83.476H51.819q-12.054,0-23.026-11.11a33.33,33.33,0,0,1-7.944-21v-.944A32,32,0,0,1,34.488,24.287,31.525,31.525,0,0,1,52.736,18.2h1.111a32.858,32.858,0,0,1,21.72,8.638V.372a.361.361,0,0,1,.472-.361Zm-44.607,50.3v1.111c0,7.722,3.75,13.888,11.249,18.776a20.415,20.415,0,0,0,9.777,2.778h1.833A21.742,21.742,0,0,0,75.484,51.729V50.007q0-12.249-12.915-19.443a25,25,0,0,0-8.832-1.833H53.18A22,22,0,0,0,31.432,50.284Z" transform="translate(37.061)" stroke="#09f755" stroke-width="2"/><path d="M73.192,6.9h1.639a31.386,31.386,0,0,1,25,12.721,30.553,30.553,0,0,1,6.333,18.109v2.778c0,2.222-.194,3.305-.555,3.305H52.194v.194a21.248,21.248,0,0,0,7,11.8,21.081,21.081,0,0,0,14.36,5.694h.917A22.526,22.526,0,0,0,91.8,53.035h11.11a30.553,30.553,0,0,1-16.665,15.86,32.386,32.386,0,0,1-11.971,2.389h-.389q-17.082,0-27.775-15.86A33.858,33.858,0,0,1,42,38.953q0-16.832,15.471-27.442A31.914,31.914,0,0,1,73.192,6.9Zm-21,27.275,43.829.167v-.167a23.192,23.192,0,0,0-9.388-13.888,22.942,22.942,0,0,0-11.8-3.694H73q-10.082,0-17.693,9.971a23.914,23.914,0,0,0-3.111,7.61Z" transform="translate(74.655 12.276)" stroke="#09f755" stroke-width="2"/><path d="M111.9,20.93Q101.094,6.542,85.345,6.57H84.262a31.441,31.441,0,0,0-18.248,6.083A40.05,40.05,0,0,0,59.32,19.1L66.1,27.651a26.525,26.525,0,0,1,3.444-4.333,21.554,21.554,0,0,1,15.082-6.277h.583A25.22,25.22,0,0,1,94.039,18.9c8.61,4.861,12.888,11.36,12.888,19.443v1.444A21.22,21.22,0,0,1,102.872,52.2a21.109,21.109,0,0,1-17.165,9.221H83.9a20.581,20.581,0,0,1-9.777-2.778,27.774,27.774,0,0,1-4.416-3.389l-.417.75-8.333,5.416c7.11,6.86,14.582,10.221,22.47,10.221h2.777a32.358,32.358,0,0,0,16.026-4.777q15.3-11.11,15.3-26.886V38.317A31.664,31.664,0,0,0,111.9,20.93Z" transform="translate(105.443 11.69)" stroke="#09f755" stroke-width="2"/><path d="M116.305,60.3V71.718h-2.028q-30.358,1.75-36.663-24.3a61.082,61.082,0,0,0-.194-7.36c0-3.639.194-7.638.194-12V6.919c0-.25,0-.389.361-.389h9.777c.25,0,.361,0,.361.389v28l.75,10.693q3.027,15.165,21.165,15.637A21.665,21.665,0,0,0,116.305,60.3Z" transform="translate(137.616 11.619)" stroke="#09f755" stroke-width="2"/><path d="M116.388,6.606H117.5a32.886,32.886,0,0,1,21.748,8.638V6.911c0-.25,0-.361.361-.361h9.777c.25,0,.361,0,.361.361V71.433c0,.25,0,.389-.361.389h-9.777c-.25,0-.361-.139-.361-.389V63.1a31.719,31.719,0,0,1-21,8.666h-2.778q-12,0-23.026-11.11a33.33,33.33,0,0,1-7.916-21v-.944A31.941,31.941,0,0,1,98.168,12.577,31.5,31.5,0,0,1,116.388,6.606ZM95,38.658v1.111c0,7.722,3.75,13.888,11.11,18.776a20.248,20.248,0,0,0,9.749,2.778h1.833a21.97,21.97,0,0,0,21.192-21.387V38.353Q138.886,26.1,126,18.91a25,25,0,0,0-8.833-1.833h-.555A22,22,0,0,0,94.862,38.63Z" transform="translate(150.254 11.654)" stroke="#09f755" stroke-width="2"/></g></svg>