<svg xmlns="http://www.w3.org/2000/svg" width="25.019" height="15.65" viewBox="0 0 25.019 15.65"><g transform="translate(0 0)"><path d="M350.955-234.243c2.329,0,4.657-.016,6.985.028a8.565,8.565,0,0,1,2.256.32,3.538,3.538,0,0,1,2.721,2.978,3.611,3.611,0,0,1-1.671,3.773.817.817,0,0,0-.121.134,3.946,3.946,0,0,1,2.332,3.6,4.462,4.462,0,0,1-3.867,4.587,11.22,11.22,0,0,1-2.12.207c-2.172.028-4.344.014-6.516.016Zm3.152,6.257c1.032,0,2,.008,2.975,0a7.631,7.631,0,0,0,1.345-.083,1.632,1.632,0,0,0,1.47-1.512,1.542,1.542,0,0,0-1.5-1.41c-1.187-.114-2.388-.088-3.583-.12-.235-.006-.47,0-.708,0Zm0,6.267c.854,0,1.652.011,2.448,0a12.222,12.222,0,0,0,1.811-.094c.956-.161,1.526-.75,1.523-1.446a1.587,1.587,0,0,0-1.55-1.486c-1.272-.121-2.559-.081-3.84-.106a3.445,3.445,0,0,0-.392.036Z" transform="translate(-350.955 234.243)" fill="#797575"/><path d="M401.609-217.162h-8.327a2.779,2.779,0,0,0,1.329,2.52,2.985,2.985,0,0,0,3.155-.155,1.416,1.416,0,0,1,.739-.252c.919-.03,1.839-.012,2.943-.012a11.852,11.852,0,0,1-1.043,1.457,5.918,5.918,0,0,1-5.178,1.618c-3.165-.369-4.9-2.3-4.968-5.5a9.306,9.306,0,0,1,.261-2.576c.836-3.131,3.494-4.227,6.151-3.918,3.039.353,4.742,2.238,4.933,5.341C401.634-218.17,401.609-217.7,401.609-217.162Zm-3.136-2.1a2.305,2.305,0,0,0-2.674-2.274,2.267,2.267,0,0,0-2.4,2.274Z" transform="translate(-376.6 227.576)" fill="#797575"/><path d="M396.039-232.14v-2.021h7.234v2.021Z" transform="translate(-380.373 234.19)" fill="#797575"/></g></svg>