<svg xmlns="http://www.w3.org/2000/svg" width="20" height="20.006" xmlns:v="https://vecta.io/nano"><path d="M0 10.59V9.418l.036-.207.19-1.29C.703 5.58 2.024 3.496 3.94 2.068A9.7 9.7 0 0 1 12.102.236c2.33.47 4.402 1.784 5.823 3.688 1.575 2.004 2.3 4.547 2.02 7.08a9.66 9.66 0 0 1-2.44 5.591 9.82 9.82 0 0 1-5.781 3.254l-1.137.156H9.415a1.1 1.1 0 0 0-.151-.032c-1.545-.097-3.042-.57-4.363-1.377a9.87 9.87 0 0 1-4.745-6.873L0 10.59zm4.774 5.96c2.452 1.982 5.816 2.402 8.68 1.084a30.1 30.1 0 0 0-1.681-6.028c-2.028.41-5.69 2.995-7 4.944zm-1.176-1.126C5.57 12.968 8.2 11.12 11.18 10.1l-.757-1.616c-.077-.173-.15-.2-.333-.142a26.57 26.57 0 0 1-7.1 1.278l-1.382.054a8.43 8.43 0 0 0 1.989 5.751zm5.954-8.6a38.8 38.8 0 0 0-2.929-4.513 8.52 8.52 0 0 0-4.794 5.741c2.62-.03 5.222-.444 7.723-1.228zm6.955-2.1a16.75 16.75 0 0 1-4.662 2.959l.927 2.01c.923-.177 1.86-.26 2.8-.25.94.016 1.878.117 2.8.3a8.21 8.21 0 0 0-1.865-5.019zm-8.2-2.953l2.83 4.46a14.78 14.78 0 0 0 4.252-2.665c-1.965-1.64-4.568-2.298-7.076-1.79zm6.638 15.013a8.47 8.47 0 0 0 3.34-5.413 12.6 12.6 0 0 0-4.916-.163 33.7 33.7 0 0 1 1.576 5.576z" fill="#797575"/></svg>