<svg xmlns="http://www.w3.org/2000/svg" width="25.019" height="23.981" fill="#797575" xmlns:v="https://vecta.io/nano"><path d="M25.006 13.82c-.013-.556-.1-1.1-.23-1.647a5.51 5.51 0 0 0-4.182-4.513c-2.442-.57-4.637-.14-6.242 2a3.16 3.16 0 0 1-.37.323V7.846H8.74V23.98H14v-8.6a7.43 7.43 0 0 1 .118-1.422c.3-1.34 1.504-2.3 2.88-2.293 1.313-.033 2.425.962 2.536 2.27a9.16 9.16 0 0 1 .144 1.655l.006 8.37h5.323l-.01-10.14zM.368 23.965h5.274V7.853H.368zM3.02 0C2.243-.047 1.48.225.9.754S.01 2.022 0 2.8c-.002.78.322 1.522.894 2.05a2.78 2.78 0 0 0 2.116.726 2.77 2.77 0 0 0 2.116-.72 2.77 2.77 0 0 0 .892-2.05A2.81 2.81 0 0 0 3.019 0z"/></svg>