<svg xmlns="http://www.w3.org/2000/svg" width="20" height="25.73" xmlns:v="https://vecta.io/nano"><path d="M8.332 17.156c-.677 2.938-1.392 6.025-3.857 8.574l-.282-1.18c-.242-2.412.003-4.847.72-7.162l.814-3.36c.313-1.2.373-2.472.174-3.706-.073-1.167.162-2.332.682-3.38.527-1.058 1.776-1.536 2.875-1.1a2.31 2.31 0 0 1 1.194 2.748l-1.08 3.96c-.4 1.434-.194 2.31.68 2.93a2.91 2.91 0 0 0 3.344-.226 7.32 7.32 0 0 0 2.5-4.888c.168-.85.224-1.72.167-2.586-.277-3.138-2.244-4.908-5.618-5.165a6.87 6.87 0 0 0-7.532 7.486c.162.763.42 1.502.77 2.2.107.294.356.615.3.873a11.85 11.85 0 0 1-.606 1.681c-.57-.145-1.1-.384-1.6-.71C-.17 12.08-.38 9.498.454 6.842 1.682 2.942 4.573.867 8.503.19a10.2 10.2 0 0 1 8.465 2.013c5.25 4.18 2.905 12.878-1.158 15.268-1.42.973-3.18 1.308-4.856.926a16.26 16.26 0 0 1-2.622-1.24z" fill="#797575"/></svg>