<svg xmlns="http://www.w3.org/2000/svg" width="77.927" height="14" viewBox="0 0 77.927 14"><g transform="translate(-302.061 -339.874)"><path d="M378.138,339.874H302.061v14h77.927v-14Zm-1.506,10.474a4.253,4.253,0,0,0-4.4-.075l-1.391.806a2.668,2.668,0,0,1-2.775-.053L366.6,350.1a4.253,4.253,0,0,0-4.415-.086l-1.36.787a2.666,2.666,0,0,1-2.8-.069l-2.343-1.517V348.2l1.482.959a4.248,4.248,0,0,0,4.454.11l1.36-.787a2.673,2.673,0,0,1,2.773.053l1.467.927a4.253,4.253,0,0,0,4.415.085l1.393-.806a2.674,2.674,0,0,1,2.763.047l2.346,1.467v1.036Zm-.305,1.678h-3.955l.657-.38a2.671,2.671,0,0,1,2.763.047Zm-9.644,0h-4.8l1.1-.639a2.666,2.666,0,0,1,2.773.053Zm9.949-4.584a4.256,4.256,0,0,0-4.4-.074l-1.391.806a2.675,2.675,0,0,1-2.775-.053l-1.466-.927a4.256,4.256,0,0,0-4.415-.086l-1.36.789a2.666,2.666,0,0,1-2.8-.07l-2.343-1.515v-1.019l1.482.959a4.251,4.251,0,0,0,4.454.111l1.36-.789a2.669,2.669,0,0,1,2.773.055l1.467.925a4.256,4.256,0,0,0,4.415.086l1.393-.806a2.674,2.674,0,0,1,2.763.045l2.346,1.466v1.038Zm0-2.9a4.253,4.253,0,0,0-4.4-.075l-1.391.806a2.672,2.672,0,0,1-2.775-.053l-1.466-.927a4.253,4.253,0,0,0-4.415-.085l-1.36.787a2.67,2.67,0,0,1-2.8-.069l-2.343-1.517v-1.017l1.482.958a4.244,4.244,0,0,0,4.454.111l1.36-.787a2.669,2.669,0,0,1,2.773.053l1.467.927a4.253,4.253,0,0,0,4.415.084l1.393-.806a2.674,2.674,0,0,1,2.763.047l2.346,1.466v1.036Zm-19.057-2.814h3.877l-.626.363a2.667,2.667,0,0,1-2.8-.07Zm9.566,0h4.8l-1.1.64a2.672,2.672,0,0,1-2.775-.055Zm11,.85-1.357-.85h1.357Zm-74.229,9.453v-10.3h49.927v10.3Zm51.776-.92,1.423.92h-1.423Z" transform="translate(0 0)" fill="#00fb52"/><path d="M309.466,345.289a2.006,2.006,0,0,0,.25-1.031,1.84,1.84,0,0,0-.52-1.39,1.909,1.909,0,0,0-1.376-.5h-2.514v5.879h1.216v-2.114h.981l1.149,2.114h1.365l-1.246-2.31A1.605,1.605,0,0,0,309.466,345.289Zm-1.208-.441a.818.818,0,0,1-.587.211h-1.155v-1.618h1.155a.812.812,0,0,1,.587.213.8.8,0,0,1,.222.6A.772.772,0,0,1,308.258,344.848Z" transform="translate(1.835 1.411)" fill="#00fb52"/><path d="M310.372,345.758h2.218V344.71h-2.218v-1.27h2.556V342.37h-3.772v5.879h3.78V347.17h-2.563Z" transform="translate(4.009 1.41)" fill="#00fb52"/><path d="M316.327,346.964a1.622,1.622,0,0,1-1.028.324,1.782,1.782,0,0,1-.678-.127,1.559,1.559,0,0,1-.545-.368,1.683,1.683,0,0,1-.365-.614,2.48,2.48,0,0,1-.133-.84,2.065,2.065,0,0,1,.468-1.42,1.58,1.58,0,0,1,1.244-.531,1.6,1.6,0,0,1,1.03.329,1.538,1.538,0,0,1,.535.945l1.266-.111a2.469,2.469,0,0,0-.93-1.631,2.928,2.928,0,0,0-1.859-.606,3.249,3.249,0,0,0-1.537.354,2.592,2.592,0,0,0-1.063,1.047,3.562,3.562,0,0,0,0,3.243,2.617,2.617,0,0,0,1.066,1.05,3.25,3.25,0,0,0,1.54.357,2.92,2.92,0,0,0,1.852-.6,2.491,2.491,0,0,0,.938-1.617l-1.274-.111A1.479,1.479,0,0,1,316.327,346.964Z" transform="translate(5.811 1.38)" fill="#00fb52"/><path d="M321.082,345.289a2.021,2.021,0,0,0,.249-1.031,1.84,1.84,0,0,0-.52-1.39,1.909,1.909,0,0,0-1.376-.5h-2.514v5.879h1.216v-2.114h.983l1.147,2.114h1.366l-1.247-2.31A1.618,1.618,0,0,0,321.082,345.289Zm-1.21-.441a.818.818,0,0,1-.587.211H318.13v-1.618h1.155a.813.813,0,0,1,.587.213.8.8,0,0,1,.222.6A.772.772,0,0,1,319.872,344.848Z" transform="translate(8.398 1.411)" fill="#00fb52"/><path d="M321.986,345.758H324.2V344.71h-2.218v-1.27h2.556V342.37H320.77v5.879h3.78V347.17h-2.563Z" transform="translate(10.573 1.41)" fill="#00fb52"/><path d="M326.277,342.37l-2.525,5.879h1.327l.488-1.133h2.443l.48,1.133h1.335L327.3,342.37ZM326,346.126l.794-1.877.8,1.877Z" transform="translate(12.258 1.411)" fill="#00fb52"/><path d="M327.34,343.44h1.972v4.808h1.209V343.44h1.965V342.37H327.34Z" transform="translate(14.286 1.41)" fill="#00fb52"/><path d="M332.617,347.17v-1.412h2.218V344.71h-2.218v-1.27h2.556V342.37H331.4v5.879h3.78V347.17Z" transform="translate(16.581 1.41)" fill="#00fb52"/></g></svg>