<svg xmlns="http://www.w3.org/2000/svg" width="20" height="17.721" xmlns:v="https://vecta.io/nano"><path d="M4.04 12.8l-1.166-1.328A10.43 10.43 0 0 1 .228 2.616 1.5 1.5 0 0 1 1.41 1.293c.59-.167 1.22.058 1.568.56a7.89 7.89 0 0 0 4.695 2.858c.19.038.384.057.624.092l.178-.93c.4-1.73 1.674-3.12 3.368-3.645s3.54-.106 4.84 1.1c.322.38.852.51 1.312.318.532-.202 1.134-.082 1.548.31s.568.984.397 1.527c-.29.79-.622 1.565-1 2.318a4.82 4.82 0 0 0-.452 1.3c-.654 5.795-5.392 10.273-11.214 10.6-2.092.15-4.2-.212-6.11-1.06-.84-.39-1.233-.946-1.15-1.66.087-.74.58-1.154 1.47-1.384S3.22 13.06 4.04 12.8zm3.386-.717c-.78 1.46-2.068 2.58-3.62 3.15l.368.092a9.85 9.85 0 0 0 11.894-7.5c.272-1.3.26-2.665 1.238-3.72.023-.024.02-.074.04-.162-.885-.096-1.706-.505-2.317-1.152a2.77 2.77 0 0 0-3.211-.2 2.79 2.79 0 0 0-1.321 2.866c.082.463.186.922.284 1.4-1.505.27-3.05.203-4.527-.192C4.74 6.218 3.36 5.41 2.23 4.3c-.033 3.413 2.027 6.498 5.193 7.774z" fill="#797575"/></svg>